# xmcd
#
# Track frame offsets:
#	150
#	14959
#	23662
#	38666
#	50445
#	62847
#	75674
#	88728
#	97874
#	108040
#	118338
#	133116
#	146020
#	157684
#	168150
#
# Disc length: 2443 seconds
#
# Revision: 0
# Processed by: cddbd v1.5.2PL0 Copyright (c) Steve Scherf et al.
# Submitted via: audiograbber 1.83.01
#
DISCID=bb09890f
DTITLE=Gayl Brown - Gayl 2008
DYEAR=2008
DGENRE=Folk/Bluegrass
TTITLE0=How Can I Live Without You
TTITLE1=It Could Be Snowin' Where I'm Goin'
TTITLE2=Our Love's a Well Kept Secret
TTITLE3=I Ain't Got Sense Enough
TTITLE4=If I Knew Then What I Know Now
TTITLE5=I Know I Should Leave
TTITLE6=Sun and Moon and Stars
TTITLE7=You Told a Lie
TTITLE8=You Took All My Blues Away
TTITLE9=Hello Again
TTITLE10=Don't Look Back
TTITLE11=How Many Times
TTITLE12=The Mountains Are Whispering
TTITLE13=Yo Yo\\
TTITLE14=No Candlelight Dinners
EXTD=
EXTT0=
EXTT1=
EXTT2=
EXTT3=
EXTT4=
EXTT5=
EXTT6=
EXTT7=
EXTT8=
EXTT9=
EXTT10=
EXTT11=
EXTT12=
EXTT13=
EXTT14=
PLAYORDER=
